<svg width="43" height="43" viewBox="0 0 43 43" fill="none" xmlns="http://www.w3.org/2000/svg">
<path fill-rule="evenodd" clip-rule="evenodd" d="M26.5261 7.37263C26.4892 7.35154 26.4525 7.33073 26.4157 7.3102L26.7022 7.47549C26.6739 7.45863 26.6456 7.44193 26.6173 7.42541C26.6003 7.41549 26.5834 7.40563 26.5664 7.39583L26.5261 7.37263ZM15.4922 35.9118L16.1863 36.3122C15.9472 36.1927 15.7153 36.0589 15.4922 35.9118Z" fill="#07E763"/>
<path d="M36.8396 6.92339C39.9362 8.70991 41.8438 12.0115 41.8438 15.5846V27.8889C41.8438 31.4619 39.9362 34.7635 36.8396 36.5501L27.3343 42.034C27.2609 42.0763 27.186 41.9814 27.2443 41.9199C30.4868 38.5008 33.0707 35.7762 33.8615 31.8675L34.5952 31.4443C35.648 30.8368 36.2966 29.7143 36.2966 28.4995V14.974C36.2966 13.7592 35.648 12.6366 34.5952 12.0292L26.7022 7.47549C26.6739 7.45863 26.6456 7.44193 26.6173 7.42541C26.5868 7.40762 26.5564 7.39003 26.5261 7.37263C26.4892 7.35154 26.4525 7.33073 26.4157 7.3102C22.3691 5.04872 18.9201 6.22369 16.8938 9.60334C16.4193 10.3947 16.0229 11.3069 15.715 12.3241C15.1388 16.4295 12.0997 18.4594 9.88685 18.6032C9.74896 18.6121 9.63723 18.4995 9.63723 18.3614V13.3858C9.63723 12.6019 9.88775 11.6114 10.3483 10.5293C12.6494 5.12311 20.1929 -2.56994 27.9275 1.78171L36.8396 6.92339Z" fill="#07E763"/>
<path fill-rule="evenodd" clip-rule="evenodd" d="M20.3629 34.2174C19.3283 34.9355 17.9718 34.9921 16.8809 34.3627L10.6084 30.7439C9.95811 30.3688 9.55752 29.6754 9.55752 28.9251V20.3866C11.8048 20.7967 13.6609 20.1366 15.4171 17.5363V27.5623C15.4171 30.476 17.7808 32.8379 20.6965 32.8379C21.7923 32.8379 22.8102 32.5043 23.6539 31.9331L20.3629 34.2174Z" fill="#07E763"/>
<path fill-rule="evenodd" clip-rule="evenodd" d="M20.6965 10.3355C19.6115 10.3355 18.6031 10.6625 17.7643 11.2233L20.6533 9.06989C21.6809 8.30384 23.0639 8.21109 24.1774 8.84617C26.3558 10.0886 28.5173 11.3631 30.6859 12.6221C31.33 12.996 31.7299 13.6814 31.7358 14.4257L31.801 22.6118C29.2989 21.8867 27.4724 23.4869 25.9759 25.3621V15.6111C25.9759 12.6975 23.6122 10.3355 20.6965 10.3355Z" fill="#07E763"/>
<path fill-rule="evenodd" clip-rule="evenodd" d="M7.52871 12.1675C6.60619 12.7979 6.04718 13.8462 6.04718 14.974V28.4995C6.04718 29.7143 6.69577 30.8368 7.7486 31.4443L15.4922 35.9118C15.7153 36.0589 15.9472 36.1927 16.1863 36.3122C17.8598 37.1491 19.8811 37.287 21.6732 36.4142C23.5857 35.4828 25.2371 33.4002 25.9258 29.7876C26.3384 27.6235 28.5549 24.1658 31.8056 24.1618V29.5679C31.8056 29.9436 31.7608 30.3501 31.6742 30.7792C31.4892 31.6961 31.1135 32.7167 30.577 33.7625C27.8061 39.164 20.746 45.2373 13.5185 41.1738L13.5155 41.1721L5.50413 36.5501C2.40756 34.7635 0.5 31.4619 0.5 27.8889V15.5846C0.5 12.0115 2.40757 8.70991 5.50416 6.92339L13.6359 2.23192C11.0082 4.17327 7.98248 8.30042 7.52871 12.1675Z" fill="#07E763"/>
<path d="M26.5261 7.37263C26.4892 7.35154 26.4525 7.33073 26.4157 7.3102M26.5261 7.37263L26.5664 7.39583C26.5834 7.40563 26.6003 7.41549 26.6173 7.42541M26.5261 7.37263C26.5564 7.39003 26.5868 7.40762 26.6173 7.42541M26.4157 7.3102L26.7022 7.47549M26.4157 7.3102C22.3691 5.04872 18.9201 6.22369 16.8938 9.60334C16.4193 10.3947 16.0229 11.3069 15.715 12.3241M26.7022 7.47549C26.6739 7.45863 26.6456 7.44193 26.6173 7.42541M26.7022 7.47549L34.5952 12.0292C35.648 12.6366 36.2966 13.7592 36.2966 14.974V28.4995C36.2966 29.7143 35.648 30.8368 34.5952 31.4443L33.8615 31.8675M15.4922 35.9118L16.1863 36.3122M15.4922 35.9118C15.7153 36.0589 15.9472 36.1927 16.1863 36.3122M15.4922 35.9118L7.7486 31.4443C6.69577 30.8368 6.04718 29.7143 6.04718 28.4995V14.974C6.04718 13.8462 6.60619 12.7979 7.52871 12.1675M16.1863 36.3122C17.8598 37.1491 19.8811 37.287 21.6732 36.4142C23.5857 35.4828 25.2371 33.4002 25.9258 29.7876C26.3384 27.6235 28.5549 24.1658 31.8056 24.1618M15.715 12.3241C15.7074 12.3446 15.6998 12.3652 15.6923 12.3857M15.715 12.3241C15.1388 16.4295 12.0997 18.4594 9.88685 18.6032C9.74896 18.6121 9.63723 18.4995 9.63723 18.3614V13.3858C9.63723 12.6019 9.88775 11.6114 10.3483 10.5293C12.6494 5.12311 20.1929 -2.56994 27.9275 1.78171L36.8396 6.92339C39.9362 8.70991 41.8438 12.0115 41.8438 15.5846V27.8889C41.8438 31.4619 39.9362 34.7635 36.8396 36.5501L27.3343 42.034C27.2609 42.0763 27.186 41.9814 27.2443 41.9199C30.4868 38.5008 33.0707 35.7762 33.8615 31.8675M33.8615 31.8675C33.8852 31.7504 33.9073 31.6321 33.9278 31.5128M13.5155 41.1721C13.5165 41.1726 13.5175 41.1732 13.5185 41.1738M13.5155 41.1721L13.5185 41.1738M13.5155 41.1721L5.50413 36.5501C2.40756 34.7635 0.5 31.4619 0.5 27.8889V15.5846C0.5 12.0115 2.40757 8.70991 5.50416 6.92339L13.6359 2.23192C11.0082 4.17327 7.98248 8.30042 7.52871 12.1675M13.5185 41.1738C20.746 45.2373 27.8061 39.164 30.577 33.7625C31.1135 32.7167 31.4892 31.6961 31.6742 30.7792C31.7608 30.3501 31.8056 29.9436 31.8056 29.5679V24.1618M7.52871 12.1675C7.52016 12.2403 7.51252 12.3131 7.50582 12.3857M31.8056 24.1618C31.8223 24.1618 31.839 24.1618 31.8557 24.162M23.6539 31.9331L20.3629 34.2174C19.3283 34.9355 17.9718 34.9921 16.8809 34.3627L10.6084 30.7439C9.95811 30.3688 9.55752 29.6754 9.55752 28.9251V20.3866C11.8048 20.7967 13.6609 20.1366 15.4171 17.5363V27.5623C15.4171 30.476 17.7808 32.8379 20.6965 32.8379C21.7923 32.8379 22.8102 32.5043 23.6539 31.9331ZM23.6539 31.9331L23.7552 31.8628M17.7643 11.2233L20.6533 9.06989C21.6809 8.30384 23.0639 8.21109 24.1774 8.84617C26.3558 10.0886 28.5173 11.3631 30.6859 12.6221C31.33 12.996 31.7299 13.6814 31.7358 14.4257L31.801 22.6118C29.2989 21.8867 27.4724 23.4869 25.9759 25.3621V15.6111C25.9759 12.6975 23.6122 10.3355 20.6965 10.3355C19.6115 10.3355 18.6031 10.6625 17.7643 11.2233Z" stroke="black"/>
</svg>
