<svg width="182" height="44" viewBox="0 0 182 44" fill="none" xmlns="http://www.w3.org/2000/svg">
<path fill-rule="evenodd" clip-rule="evenodd" d="M27.2654 7.19939C27.2268 7.17729 27.1883 7.15549 27.1498 7.13399L27.4499 7.30714C27.4203 7.28948 27.3906 7.27199 27.361 7.25468C27.3432 7.24429 27.3254 7.23396 27.3076 7.22369L27.2654 7.19939ZM15.7061 37.0975L16.4333 37.5171C16.1828 37.3918 15.9399 37.2517 15.7061 37.0975Z" fill="#07E763"/>
<path d="M38.07 6.72875C41.3141 8.60034 43.3125 12.0592 43.3125 15.8024V28.6926C43.3125 32.4358 41.3141 35.8946 38.07 37.7662L28.1121 43.5113C28.0353 43.5556 27.9567 43.4562 28.0178 43.3918C31.4147 39.8099 34.1217 36.9555 34.9501 32.8607L35.7188 32.4173C36.8217 31.7809 37.5012 30.6049 37.5012 29.3323V15.1627C37.5012 13.89 36.8217 12.714 35.7188 12.0777L27.4499 7.30714C27.4203 7.28948 27.3906 7.27199 27.361 7.25468C27.3291 7.23605 27.2972 7.21762 27.2654 7.19939C27.2268 7.17729 27.1883 7.15549 27.1498 7.13399C22.9104 4.76482 19.2972 5.99574 17.1744 9.53632C16.6774 10.3653 16.2621 11.321 15.9395 12.3867C15.3359 16.6875 12.1521 18.8141 9.83384 18.9647C9.68938 18.9741 9.57233 18.8561 9.57233 18.7114V13.4989C9.57233 12.6777 9.83479 11.64 10.3173 10.5064C12.7279 4.84274 20.6307 -3.21664 28.7336 1.34223L38.07 6.72875Z" fill="#07E763"/>
<path fill-rule="evenodd" clip-rule="evenodd" d="M20.8087 35.3225C19.7249 36.0748 18.3038 36.1341 17.1609 35.4747L10.5897 31.6836C9.9085 31.2906 9.48883 30.5642 9.48883 29.7781V20.8331C11.8431 21.2627 13.7876 20.5711 15.6274 17.847V28.3505C15.6274 31.4029 18.1036 33.8773 21.1582 33.8773C22.3063 33.8773 23.3726 33.5278 24.2565 32.9294L20.8087 35.3225Z" fill="#07E763"/>
<path fill-rule="evenodd" clip-rule="evenodd" d="M21.1582 10.3034C20.0216 10.3034 18.9651 10.6459 18.0864 11.2334L21.1129 8.97746C22.1896 8.17494 23.6384 8.07778 24.8049 8.74309C27.087 10.0446 29.3514 11.3799 31.6233 12.6988C32.2981 13.0906 32.717 13.8086 32.7232 14.5884L32.7915 23.1642C30.1703 22.4046 28.2568 24.081 26.689 26.0455V15.8301C26.689 12.7778 24.2128 10.3034 21.1582 10.3034Z" fill="#07E763"/>
<path fill-rule="evenodd" clip-rule="evenodd" d="M7.36341 12.2226C6.39696 12.883 5.81134 13.9812 5.81134 15.1627V29.3323C5.81134 30.6049 6.49081 31.7809 7.59377 32.4173L15.7061 37.0975C15.9399 37.2517 16.1828 37.3918 16.4333 37.5171C18.1864 38.3938 20.304 38.5382 22.1814 37.6239C24.185 36.6481 25.9151 34.4664 26.6366 30.6817C27.0688 28.4145 29.3909 24.7922 32.7964 24.788V30.4516C32.7964 30.8452 32.7494 31.271 32.6587 31.7206C32.4649 32.6812 32.0713 33.7503 31.5093 34.8459C28.6064 40.5046 21.2101 46.8672 13.6384 42.6101L13.6352 42.6083L5.24243 37.7662C1.9984 35.8946 0 32.4358 0 28.6926V15.8024C0 12.0592 1.99841 8.60034 5.24245 6.72875L13.7614 1.81388C11.0086 3.84768 7.83879 8.17136 7.36341 12.2226Z" fill="#07E763"/>
<path fill-rule="evenodd" clip-rule="evenodd" d="M55.3125 33.3867V10H66.3517C70.4162 10 73.7111 13.2949 73.7111 17.3595C73.7111 20.8282 71.3113 23.7364 68.0815 24.5145C68.707 24.683 68.8583 24.971 69.5628 26.3127C70.2091 27.5435 71.3211 29.6611 73.6921 33.3867H67.769L62.8355 24.8416H60.3823V33.4276L55.3125 33.3867ZM60.3823 14.0477V20.8348H64.9616C66.8358 20.8348 68.3551 19.3154 68.3551 17.4412C68.3551 15.567 66.8358 14.0477 64.9616 14.0477H60.3823Z" fill="#07E763"/>
<path fill-rule="evenodd" clip-rule="evenodd" d="M90.2699 26.1908C92.7231 14.0886 75.0396 13.2418 74.7333 25.0869C74.7333 34.368 84.4232 35.3083 89.2478 32.2419V28.3986C85.2818 31.0971 80.4629 30.9547 79.2716 26.4361H89.9837L90.2699 26.1908ZM86.1813 23.1244H79.2716C79.9383 20.8137 81.3159 19.9762 83.1149 19.9762C84.5868 19.9762 86.0587 21.2845 86.1813 23.1244Z" fill="#07E763"/>
<path d="M93.1728 10.8586C93.1728 10.678 93.3192 10.5315 93.4999 10.5315H97.5885C97.7691 10.5315 97.9156 10.678 97.9156 10.8586V33.0187C97.9156 33.1994 97.7691 33.3458 97.5885 33.3458H93.4999C93.3192 33.3458 93.1728 33.1994 93.1728 33.0187V10.8586Z" fill="#07E763"/>
<path d="M108.356 16.5826H103.97C103.865 16.5826 103.767 16.6331 103.705 16.7183L98.2089 24.3346C98.1305 24.4432 98.1263 24.5886 98.1982 24.7016L103.707 33.3579C103.767 33.4522 103.871 33.5094 103.983 33.5094H108.4C108.658 33.5094 108.814 33.2244 108.676 33.0067L103.391 24.7016C103.319 24.5886 103.323 24.4432 103.401 24.3346L108.621 17.1011C108.778 16.8848 108.623 16.5826 108.356 16.5826Z" fill="#07E763"/>
<path d="M111.571 16.5826C111.752 16.5826 111.899 16.4362 111.899 16.2555V12.9029C111.899 12.7223 112.045 12.5758 112.226 12.5758H115.824C116.004 12.5758 116.151 12.7223 116.151 12.9029V16.2555C116.151 16.4362 116.297 16.5826 116.478 16.5826H120.157C120.338 16.5826 120.485 16.7291 120.485 16.9097V19.7717C120.485 19.9524 120.338 20.0988 120.157 20.0988H116.478C116.297 20.0988 116.151 20.2452 116.151 20.4259V26.9676C116.151 28.5483 117.432 29.8296 119.013 29.8296H120.157C120.338 29.8296 120.485 29.9761 120.485 30.1567V33.1823C120.485 33.3629 120.338 33.5094 120.157 33.5094H117.459C117.008 33.5094 116.57 33.4577 116.151 33.3603C114.277 32.925 112.773 31.5757 112.176 29.8296C111.996 29.3023 111.899 28.7388 111.899 28.1533V20.4259C111.899 20.2452 111.752 20.0988 111.571 20.0988H109.282C109.101 20.0988 108.955 19.9524 108.955 19.7717V16.9097C108.955 16.7291 109.101 16.5826 109.282 16.5826H111.571Z" fill="#07E763"/>
<path d="M154.379 29.7479C155.745 29.7479 156.891 28.8036 157.2 27.532V17.3186C157.2 17.0476 157.42 16.8279 157.691 16.8279H161.452C161.723 16.8279 161.943 17.0476 161.943 17.3186V33.3458H157.2V31.176C156.235 32.8631 154.418 34 152.335 34C151.384 34 150.489 33.7634 149.705 33.3458C147.937 32.4041 146.733 30.5419 146.733 28.3986V17.3186C146.733 17.0476 146.953 16.8279 147.224 16.8279H150.985C151.256 16.8279 151.476 17.0476 151.476 17.3186V26.845C151.476 28.4482 152.776 29.7479 154.379 29.7479Z" fill="#07E763"/>
<path fill-rule="evenodd" clip-rule="evenodd" d="M175.435 33.4911C175.303 33.5145 175.169 33.5339 175.034 33.5492C175.167 33.5308 175.301 33.5115 175.435 33.4911Z" fill="#07E763"/>
<path fill-rule="evenodd" clip-rule="evenodd" d="M173.023 30.1567C172.767 30.1567 172.516 30.1257 172.274 30.0664C172.507 30.0984 172.755 30.1277 173.023 30.1567Z" fill="#07E763"/>
<path fill-rule="evenodd" clip-rule="evenodd" d="M173.023 30.1567C172.767 30.1567 172.516 30.1257 172.274 30.0664C172.507 30.0984 172.755 30.1277 173.023 30.1567Z" fill="#07E763"/>
<path fill-rule="evenodd" clip-rule="evenodd" d="M169.548 10.5315H165.05V31.833C165.888 32.5582 167.118 33.0469 168.497 33.3458C170.618 33.8054 173.091 33.8166 175.034 33.5492C175.167 33.5308 175.301 33.5115 175.435 33.4911C179.001 32.8618 181.732 29.3387 181.732 25.0869C181.732 20.3901 178.4 16.5826 174.29 16.5826C172.488 16.5826 170.835 17.315 169.548 18.5335V10.5315ZM169.548 29.0696V23.1161C170.185 21.521 171.502 20.4259 173.023 20.4259C175.168 20.4259 176.907 22.6042 176.907 25.2913C176.907 27.9784 175.168 30.1567 173.023 30.1567C172.767 30.1567 172.516 30.1257 172.274 30.0664C171.113 29.9064 170.342 29.6775 169.548 29.0696Z" fill="#07E763"/>
<path d="M129.725 10.8586C129.725 10.678 129.578 10.5315 129.398 10.5315H125.309C125.128 10.5315 124.982 10.678 124.982 10.8586V33.0187C124.982 33.1994 125.128 33.3458 125.309 33.3458H129.398C129.578 33.3458 129.725 33.1994 129.725 33.0187V24.4327C129.725 24.2521 129.871 24.1056 130.052 24.1056H138.883C139.064 24.1056 139.21 24.2521 139.21 24.4327V33.0187C139.21 33.1994 139.357 33.3458 139.537 33.3458H143.626C143.807 33.3458 143.953 33.1994 143.953 33.0187V10.8586C143.953 10.678 143.807 10.5315 143.626 10.5315H139.537C139.357 10.5315 139.21 10.678 139.21 10.8586V19.4446C139.21 19.6253 139.064 19.7717 138.883 19.7717H130.052C129.871 19.7717 129.725 19.6253 129.725 19.4446V10.8586Z" fill="#07E763"/>
</svg>
